<mxfile host="drawio-plugin" modified="2023-09-16T20:14:11.236Z" agent="5.0 (Windows NT 10.0; Win64; x64) AppleWebKit/537.36 (KHTML, like Gecko) Chrome/111.0.0.0 Safari/537.36" version="20.5.3" etag="z-e_YuZCkAbNo1WIcHQY" type="embed"><diagram id="eKSXfW6ebwsDHYNv0loQ" name="Page-1"><mxGraphModel dx="2106" dy="1080" grid="1" gridSize="10" guides="1" tooltips="1" connect="1" arrows="1" fold="1" page="1" pageScale="1" pageWidth="850" pageHeight="1100" math="0" shadow="0"><root><mxCell id="0"/><mxCell id="1" parent="0"/><mxCell id="2" value="Atm" style="swimlane;fontStyle=1;align=center;verticalAlign=top;childLayout=stackLayout;horizontal=1;startSize=26;horizontalStack=0;resizeParent=1;resizeParentMax=0;resizeLast=0;collapsible=1;marginBottom=0;" vertex="1" parent="1"><mxGeometry x="570" y="690" width="310" height="216" as="geometry"/></mxCell><mxCell id="3" value="- location: String" style="text;strokeColor=none;fillColor=none;align=left;verticalAlign=top;spacingLeft=4;spacingRight=4;overflow=hidden;rotatable=0;points=[[0,0.5],[1,0.5]];portConstraint=eastwest;" vertex="1" parent="2"><mxGeometry y="26" width="310" height="26" as="geometry"/></mxCell><mxCell id="109" value="- address: String" style="text;strokeColor=none;fillColor=none;align=left;verticalAlign=top;spacingLeft=4;spacingRight=4;overflow=hidden;rotatable=0;points=[[0,0.5],[1,0.5]];portConstraint=eastwest;" vertex="1" parent="2"><mxGeometry y="52" width="310" height="26" as="geometry"/></mxCell><mxCell id="112" value="- auth: Auth" style="text;strokeColor=none;fillColor=none;align=left;verticalAlign=top;spacingLeft=4;spacingRight=4;overflow=hidden;rotatable=0;points=[[0,0.5],[1,0.5]];portConstraint=eastwest;" vertex="1" parent="2"><mxGeometry y="78" width="310" height="26" as="geometry"/></mxCell><mxCell id="125" value="- cardReader: CardReader" style="text;strokeColor=none;fillColor=none;align=left;verticalAlign=top;spacingLeft=4;spacingRight=4;overflow=hidden;rotatable=0;points=[[0,0.5],[1,0.5]];portConstraint=eastwest;" vertex="1" parent="2"><mxGeometry y="104" width="310" height="26" as="geometry"/></mxCell><mxCell id="4" value="" style="line;strokeWidth=1;fillColor=none;align=left;verticalAlign=middle;spacingTop=-1;spacingLeft=3;spacingRight=3;rotatable=0;labelPosition=right;points=[];portConstraint=eastwest;strokeColor=inherit;" vertex="1" parent="2"><mxGeometry y="130" width="310" height="8" as="geometry"/></mxCell><mxCell id="123" value="+ performCardAction(CardAction)" style="text;strokeColor=none;fillColor=none;align=left;verticalAlign=top;spacingLeft=4;spacingRight=4;overflow=hidden;rotatable=0;points=[[0,0.5],[1,0.5]];portConstraint=eastwest;" vertex="1" parent="2"><mxGeometry y="138" width="310" height="26" as="geometry"/></mxCell><mxCell id="5" value="+ authenticateUser(pin: int, AtmCard): Auth" style="text;strokeColor=none;fillColor=none;align=left;verticalAlign=top;spacingLeft=4;spacingRight=4;overflow=hidden;rotatable=0;points=[[0,0.5],[1,0.5]];portConstraint=eastwest;" vertex="1" parent="2"><mxGeometry y="164" width="310" height="26" as="geometry"/></mxCell><mxCell id="110" value="+ operateTransaction(TransactionType)" style="text;strokeColor=none;fillColor=none;align=left;verticalAlign=top;spacingLeft=4;spacingRight=4;overflow=hidden;rotatable=0;points=[[0,0.5],[1,0.5]];portConstraint=eastwest;" vertex="1" parent="2"><mxGeometry y="190" width="310" height="26" as="geometry"/></mxCell><mxCell id="6" value="Operator" style="swimlane;fontStyle=1;align=center;verticalAlign=top;childLayout=stackLayout;horizontal=1;startSize=26;horizontalStack=0;resizeParent=1;resizeParentMax=0;resizeLast=0;collapsible=1;marginBottom=0;" vertex="1" parent="1"><mxGeometry x="1050" y="490" width="340" height="138" as="geometry"/></mxCell><mxCell id="7" value="+ field: type" style="text;strokeColor=none;fillColor=none;align=left;verticalAlign=top;spacingLeft=4;spacingRight=4;overflow=hidden;rotatable=0;points=[[0,0.5],[1,0.5]];portConstraint=eastwest;" vertex="1" parent="6"><mxGeometry y="26" width="340" height="26" as="geometry"/></mxCell><mxCell id="8" value="" style="line;strokeWidth=1;fillColor=none;align=left;verticalAlign=middle;spacingTop=-1;spacingLeft=3;spacingRight=3;rotatable=0;labelPosition=right;points=[];portConstraint=eastwest;strokeColor=inherit;" vertex="1" parent="6"><mxGeometry y="52" width="340" height="8" as="geometry"/></mxCell><mxCell id="9" value="+ refillCash(): void" style="text;strokeColor=none;fillColor=none;align=left;verticalAlign=top;spacingLeft=4;spacingRight=4;overflow=hidden;rotatable=0;points=[[0,0.5],[1,0.5]];portConstraint=eastwest;" vertex="1" parent="6"><mxGeometry y="60" width="340" height="26" as="geometry"/></mxCell><mxCell id="37" value="+ refillReceipts(): void" style="text;strokeColor=none;fillColor=none;align=left;verticalAlign=top;spacingLeft=4;spacingRight=4;overflow=hidden;rotatable=0;points=[[0,0.5],[1,0.5]];portConstraint=eastwest;" vertex="1" parent="6"><mxGeometry y="86" width="340" height="26" as="geometry"/></mxCell><mxCell id="47" value="+ getTransactionLogs(Transaction): List&lt;TransactionLog&gt;" style="text;strokeColor=none;fillColor=none;align=left;verticalAlign=top;spacingLeft=4;spacingRight=4;overflow=hidden;rotatable=0;points=[[0,0.5],[1,0.5]];portConstraint=eastwest;" vertex="1" parent="6"><mxGeometry y="112" width="340" height="26" as="geometry"/></mxCell><mxCell id="10" value="Customer" style="swimlane;fontStyle=1;align=center;verticalAlign=top;childLayout=stackLayout;horizontal=1;startSize=26;horizontalStack=0;resizeParent=1;resizeParentMax=0;resizeLast=0;collapsible=1;marginBottom=0;" vertex="1" parent="1"><mxGeometry x="350" y="400" width="320" height="164" as="geometry"/></mxCell><mxCell id="11" value="- atmCard: AtmCard" style="text;strokeColor=none;fillColor=none;align=left;verticalAlign=top;spacingLeft=4;spacingRight=4;overflow=hidden;rotatable=0;points=[[0,0.5],[1,0.5]];portConstraint=eastwest;" vertex="1" parent="10"><mxGeometry y="26" width="320" height="26" as="geometry"/></mxCell><mxCell id="116" value="- account: Account" style="text;strokeColor=none;fillColor=none;align=left;verticalAlign=top;spacingLeft=4;spacingRight=4;overflow=hidden;rotatable=0;points=[[0,0.5],[1,0.5]];portConstraint=eastwest;" vertex="1" parent="10"><mxGeometry y="52" width="320" height="26" as="geometry"/></mxCell><mxCell id="12" value="" style="line;strokeWidth=1;fillColor=none;align=left;verticalAlign=middle;spacingTop=-1;spacingLeft=3;spacingRight=3;rotatable=0;labelPosition=right;points=[];portConstraint=eastwest;strokeColor=inherit;" vertex="1" parent="10"><mxGeometry y="78" width="320" height="8" as="geometry"/></mxCell><mxCell id="88" value="+ selectCardAction(Atm, CardAction)" style="text;strokeColor=none;fillColor=none;align=left;verticalAlign=top;spacingLeft=4;spacingRight=4;overflow=hidden;rotatable=0;points=[[0,0.5],[1,0.5]];portConstraint=eastwest;" vertex="1" parent="10"><mxGeometry y="86" width="320" height="26" as="geometry"/></mxCell><mxCell id="13" value="+ enterPin(pin: int, Atm)" style="text;strokeColor=none;fillColor=none;align=left;verticalAlign=top;spacingLeft=4;spacingRight=4;overflow=hidden;rotatable=0;points=[[0,0.5],[1,0.5]];portConstraint=eastwest;" vertex="1" parent="10"><mxGeometry y="112" width="320" height="26" as="geometry"/></mxCell><mxCell id="86" value="+ selectTransaction(TransactionType)" style="text;strokeColor=none;fillColor=none;align=left;verticalAlign=top;spacingLeft=4;spacingRight=4;overflow=hidden;rotatable=0;points=[[0,0.5],[1,0.5]];portConstraint=eastwest;" vertex="1" parent="10"><mxGeometry y="138" width="320" height="26" as="geometry"/></mxCell><mxCell id="14" value="BankManager" style="swimlane;fontStyle=1;align=center;verticalAlign=top;childLayout=stackLayout;horizontal=1;startSize=26;horizontalStack=0;resizeParent=1;resizeParentMax=0;resizeLast=0;collapsible=1;marginBottom=0;" vertex="1" parent="1"><mxGeometry x="1510" y="494" width="270" height="86" as="geometry"/></mxCell><mxCell id="15" value="+ field: type" style="text;strokeColor=none;fillColor=none;align=left;verticalAlign=top;spacingLeft=4;spacingRight=4;overflow=hidden;rotatable=0;points=[[0,0.5],[1,0.5]];portConstraint=eastwest;" vertex="1" parent="14"><mxGeometry y="26" width="270" height="26" as="geometry"/></mxCell><mxCell id="16" value="" style="line;strokeWidth=1;fillColor=none;align=left;verticalAlign=middle;spacingTop=-1;spacingLeft=3;spacingRight=3;rotatable=0;labelPosition=right;points=[];portConstraint=eastwest;strokeColor=inherit;" vertex="1" parent="14"><mxGeometry y="52" width="270" height="8" as="geometry"/></mxCell><mxCell id="17" value="+ approveCashDeposit()" style="text;strokeColor=none;fillColor=none;align=left;verticalAlign=top;spacingLeft=4;spacingRight=4;overflow=hidden;rotatable=0;points=[[0,0.5],[1,0.5]];portConstraint=eastwest;" vertex="1" parent="14"><mxGeometry y="60" width="270" height="26" as="geometry"/></mxCell><mxCell id="18" value="Person" style="swimlane;fontStyle=3;align=center;verticalAlign=top;childLayout=stackLayout;horizontal=1;startSize=26;horizontalStack=0;resizeParent=1;resizeParentMax=0;resizeLast=0;collapsible=1;marginBottom=0;" vertex="1" parent="1"><mxGeometry x="870" y="150" width="250" height="138" as="geometry"/></mxCell><mxCell id="19" value="+ id: String" style="text;strokeColor=none;fillColor=none;align=left;verticalAlign=top;spacingLeft=4;spacingRight=4;overflow=hidden;rotatable=0;points=[[0,0.5],[1,0.5]];portConstraint=eastwest;" vertex="1" parent="18"><mxGeometry y="26" width="250" height="26" as="geometry"/></mxCell><mxCell id="22" value="+ name: String" style="text;strokeColor=none;fillColor=none;align=left;verticalAlign=top;spacingLeft=4;spacingRight=4;overflow=hidden;rotatable=0;points=[[0,0.5],[1,0.5]];portConstraint=eastwest;" vertex="1" parent="18"><mxGeometry y="52" width="250" height="26" as="geometry"/></mxCell><mxCell id="23" value="+ address: String" style="text;strokeColor=none;fillColor=none;align=left;verticalAlign=top;spacingLeft=4;spacingRight=4;overflow=hidden;rotatable=0;points=[[0,0.5],[1,0.5]];portConstraint=eastwest;" vertex="1" parent="18"><mxGeometry y="78" width="250" height="26" as="geometry"/></mxCell><mxCell id="20" value="" style="line;strokeWidth=1;fillColor=none;align=left;verticalAlign=middle;spacingTop=-1;spacingLeft=3;spacingRight=3;rotatable=0;labelPosition=right;points=[];portConstraint=eastwest;strokeColor=inherit;" vertex="1" parent="18"><mxGeometry y="104" width="250" height="8" as="geometry"/></mxCell><mxCell id="21" value="+ getAccount(id: String): Account" style="text;strokeColor=none;fillColor=none;align=left;verticalAlign=top;spacingLeft=4;spacingRight=4;overflow=hidden;rotatable=0;points=[[0,0.5],[1,0.5]];portConstraint=eastwest;" vertex="1" parent="18"><mxGeometry y="112" width="250" height="26" as="geometry"/></mxCell><mxCell id="28" value="CardReader" style="swimlane;fontStyle=1;align=center;verticalAlign=top;childLayout=stackLayout;horizontal=1;startSize=26;horizontalStack=0;resizeParent=1;resizeParentMax=0;resizeLast=0;collapsible=1;marginBottom=0;" vertex="1" parent="1"><mxGeometry x="645" y="1080" width="160" height="112" as="geometry"/></mxCell><mxCell id="29" value="- id: String" style="text;strokeColor=none;fillColor=none;align=left;verticalAlign=top;spacingLeft=4;spacingRight=4;overflow=hidden;rotatable=0;points=[[0,0.5],[1,0.5]];portConstraint=eastwest;" vertex="1" parent="28"><mxGeometry y="26" width="160" height="26" as="geometry"/></mxCell><mxCell id="30" value="" style="line;strokeWidth=1;fillColor=none;align=left;verticalAlign=middle;spacingTop=-1;spacingLeft=3;spacingRight=3;rotatable=0;labelPosition=right;points=[];portConstraint=eastwest;strokeColor=inherit;" vertex="1" parent="28"><mxGeometry y="52" width="160" height="8" as="geometry"/></mxCell><mxCell id="31" value="+ insertCard(AtmCard)" style="text;strokeColor=none;fillColor=none;align=left;verticalAlign=top;spacingLeft=4;spacingRight=4;overflow=hidden;rotatable=0;points=[[0,0.5],[1,0.5]];portConstraint=eastwest;" vertex="1" parent="28"><mxGeometry y="60" width="160" height="26" as="geometry"/></mxCell><mxCell id="91" value="+ ejectCard(): AtmCard" style="text;strokeColor=none;fillColor=none;align=left;verticalAlign=top;spacingLeft=4;spacingRight=4;overflow=hidden;rotatable=0;points=[[0,0.5],[1,0.5]];portConstraint=eastwest;" vertex="1" parent="28"><mxGeometry y="86" width="160" height="26" as="geometry"/></mxCell><mxCell id="32" value="AtmCard" style="swimlane;fontStyle=1;align=center;verticalAlign=top;childLayout=stackLayout;horizontal=1;startSize=26;horizontalStack=0;resizeParent=1;resizeParentMax=0;resizeLast=0;collapsible=1;marginBottom=0;" vertex="1" parent="1"><mxGeometry x="130" y="220" width="160" height="86" as="geometry"/></mxCell><mxCell id="33" value="- account: Account" style="text;strokeColor=none;fillColor=none;align=left;verticalAlign=top;spacingLeft=4;spacingRight=4;overflow=hidden;rotatable=0;points=[[0,0.5],[1,0.5]];portConstraint=eastwest;" vertex="1" parent="32"><mxGeometry y="26" width="160" height="26" as="geometry"/></mxCell><mxCell id="34" value="" style="line;strokeWidth=1;fillColor=none;align=left;verticalAlign=middle;spacingTop=-1;spacingLeft=3;spacingRight=3;rotatable=0;labelPosition=right;points=[];portConstraint=eastwest;strokeColor=inherit;" vertex="1" parent="32"><mxGeometry y="52" width="160" height="8" as="geometry"/></mxCell><mxCell id="35" value="+ method(type): type" style="text;strokeColor=none;fillColor=none;align=left;verticalAlign=top;spacingLeft=4;spacingRight=4;overflow=hidden;rotatable=0;points=[[0,0.5],[1,0.5]];portConstraint=eastwest;" vertex="1" parent="32"><mxGeometry y="60" width="160" height="26" as="geometry"/></mxCell><mxCell id="43" value="Bank" style="swimlane;fontStyle=1;align=center;verticalAlign=top;childLayout=stackLayout;horizontal=1;startSize=26;horizontalStack=0;resizeParent=1;resizeParentMax=0;resizeLast=0;collapsible=1;marginBottom=0;" vertex="1" parent="1"><mxGeometry x="950" y="910" width="280" height="138" as="geometry"/></mxCell><mxCell id="44" value="- name: String" style="text;strokeColor=none;fillColor=none;align=left;verticalAlign=top;spacingLeft=4;spacingRight=4;overflow=hidden;rotatable=0;points=[[0,0.5],[1,0.5]];portConstraint=eastwest;" vertex="1" parent="43"><mxGeometry y="26" width="280" height="26" as="geometry"/></mxCell><mxCell id="97" value="- code: String" style="text;strokeColor=none;fillColor=none;align=left;verticalAlign=top;spacingLeft=4;spacingRight=4;overflow=hidden;rotatable=0;points=[[0,0.5],[1,0.5]];portConstraint=eastwest;" vertex="1" parent="43"><mxGeometry y="52" width="280" height="26" as="geometry"/></mxCell><mxCell id="45" value="" style="line;strokeWidth=1;fillColor=none;align=left;verticalAlign=middle;spacingTop=-1;spacingLeft=3;spacingRight=3;rotatable=0;labelPosition=right;points=[];portConstraint=eastwest;strokeColor=inherit;" vertex="1" parent="43"><mxGeometry y="78" width="280" height="8" as="geometry"/></mxCell><mxCell id="46" value="+ getBankDetails(pin, atmCard)" style="text;strokeColor=none;fillColor=none;align=left;verticalAlign=top;spacingLeft=4;spacingRight=4;overflow=hidden;rotatable=0;points=[[0,0.5],[1,0.5]];portConstraint=eastwest;" vertex="1" parent="43"><mxGeometry y="86" width="280" height="26" as="geometry"/></mxCell><mxCell id="118" value="+ verifyCustomer(pin, atmCard): boolean" style="text;strokeColor=none;fillColor=none;align=left;verticalAlign=top;spacingLeft=4;spacingRight=4;overflow=hidden;rotatable=0;points=[[0,0.5],[1,0.5]];portConstraint=eastwest;" vertex="1" parent="43"><mxGeometry y="112" width="280" height="26" as="geometry"/></mxCell><mxCell id="50" value="Transaction" style="swimlane;fontStyle=1;align=center;verticalAlign=top;childLayout=stackLayout;horizontal=1;startSize=26;horizontalStack=0;resizeParent=1;resizeParentMax=0;resizeLast=0;collapsible=1;marginBottom=0;" vertex="1" parent="1"><mxGeometry x="10" y="950" width="250" height="268" as="geometry"/></mxCell><mxCell id="51" value="- id: String" style="text;strokeColor=none;fillColor=none;align=left;verticalAlign=top;spacingLeft=4;spacingRight=4;overflow=hidden;rotatable=0;points=[[0,0.5],[1,0.5]];portConstraint=eastwest;" vertex="1" parent="50"><mxGeometry y="26" width="250" height="26" as="geometry"/></mxCell><mxCell id="52" value="" style="line;strokeWidth=1;fillColor=none;align=left;verticalAlign=middle;spacingTop=-1;spacingLeft=3;spacingRight=3;rotatable=0;labelPosition=right;points=[];portConstraint=eastwest;strokeColor=inherit;" vertex="1" parent="50"><mxGeometry y="52" width="250" height="8" as="geometry"/></mxCell><mxCell id="77" value="+ inquireBalance(Auth): long" style="text;strokeColor=none;fillColor=none;align=left;verticalAlign=top;spacingLeft=4;spacingRight=4;overflow=hidden;rotatable=0;points=[[0,0.5],[1,0.5]];portConstraint=eastwest;" vertex="1" parent="50"><mxGeometry y="60" width="250" height="26" as="geometry"/></mxCell><mxCell id="78" value="+ depositCash(Auth, long)" style="text;strokeColor=none;fillColor=none;align=left;verticalAlign=top;spacingLeft=4;spacingRight=4;overflow=hidden;rotatable=0;points=[[0,0.5],[1,0.5]];portConstraint=eastwest;" vertex="1" parent="50"><mxGeometry y="86" width="250" height="26" as="geometry"/></mxCell><mxCell id="79" value="+ depositCheque(Auth, long)" style="text;strokeColor=none;fillColor=none;align=left;verticalAlign=top;spacingLeft=4;spacingRight=4;overflow=hidden;rotatable=0;points=[[0,0.5],[1,0.5]];portConstraint=eastwest;" vertex="1" parent="50"><mxGeometry y="112" width="250" height="26" as="geometry"/></mxCell><mxCell id="80" value="+ withdrawCash(Auth, long)" style="text;strokeColor=none;fillColor=none;align=left;verticalAlign=top;spacingLeft=4;spacingRight=4;overflow=hidden;rotatable=0;points=[[0,0.5],[1,0.5]];portConstraint=eastwest;" vertex="1" parent="50"><mxGeometry y="138" width="250" height="26" as="geometry"/></mxCell><mxCell id="81" value="+ transferFunds(Auth, long)" style="text;strokeColor=none;fillColor=none;align=left;verticalAlign=top;spacingLeft=4;spacingRight=4;overflow=hidden;rotatable=0;points=[[0,0.5],[1,0.5]];portConstraint=eastwest;" vertex="1" parent="50"><mxGeometry y="164" width="250" height="26" as="geometry"/></mxCell><mxCell id="92" value="+ cancel(Auth)" style="text;strokeColor=none;fillColor=none;align=left;verticalAlign=top;spacingLeft=4;spacingRight=4;overflow=hidden;rotatable=0;points=[[0,0.5],[1,0.5]];portConstraint=eastwest;" vertex="1" parent="50"><mxGeometry y="190" width="250" height="26" as="geometry"/></mxCell><mxCell id="53" value="+ getLogs(): List&lt;TransactionLog&gt;" style="text;strokeColor=none;fillColor=none;align=left;verticalAlign=top;spacingLeft=4;spacingRight=4;overflow=hidden;rotatable=0;points=[[0,0.5],[1,0.5]];portConstraint=eastwest;" vertex="1" parent="50"><mxGeometry y="216" width="250" height="26" as="geometry"/></mxCell><mxCell id="94" value="- logTransaction(TransactionLog)&#10;)" style="text;strokeColor=none;fillColor=none;align=left;verticalAlign=top;spacingLeft=4;spacingRight=4;overflow=hidden;rotatable=0;points=[[0,0.5],[1,0.5]];portConstraint=eastwest;" vertex="1" parent="50"><mxGeometry y="242" width="250" height="26" as="geometry"/></mxCell><mxCell id="54" value="TransactionLog" style="swimlane;fontStyle=1;align=center;verticalAlign=top;childLayout=stackLayout;horizontal=1;startSize=26;horizontalStack=0;resizeParent=1;resizeParentMax=0;resizeLast=0;collapsible=1;marginBottom=0;" vertex="1" parent="1"><mxGeometry x="-290" y="910" width="220" height="138" as="geometry"><mxRectangle x="60" y="530" width="130" height="30" as="alternateBounds"/></mxGeometry></mxCell><mxCell id="55" value="- id: String" style="text;strokeColor=none;fillColor=none;align=left;verticalAlign=top;spacingLeft=4;spacingRight=4;overflow=hidden;rotatable=0;points=[[0,0.5],[1,0.5]];portConstraint=eastwest;" vertex="1" parent="54"><mxGeometry y="26" width="220" height="26" as="geometry"/></mxCell><mxCell id="70" value="- transactionId: String" style="text;strokeColor=none;fillColor=none;align=left;verticalAlign=top;spacingLeft=4;spacingRight=4;overflow=hidden;rotatable=0;points=[[0,0.5],[1,0.5]];portConstraint=eastwest;" vertex="1" parent="54"><mxGeometry y="52" width="220" height="26" as="geometry"/></mxCell><mxCell id="69" value="- status: String" style="text;strokeColor=none;fillColor=none;align=left;verticalAlign=top;spacingLeft=4;spacingRight=4;overflow=hidden;rotatable=0;points=[[0,0.5],[1,0.5]];portConstraint=eastwest;" vertex="1" parent="54"><mxGeometry y="78" width="220" height="26" as="geometry"/></mxCell><mxCell id="68" value="- detail: String" style="text;strokeColor=none;fillColor=none;align=left;verticalAlign=top;spacingLeft=4;spacingRight=4;overflow=hidden;rotatable=0;points=[[0,0.5],[1,0.5]];portConstraint=eastwest;" vertex="1" parent="54"><mxGeometry y="104" width="220" height="26" as="geometry"/></mxCell><mxCell id="56" value="" style="line;strokeWidth=1;fillColor=none;align=left;verticalAlign=middle;spacingTop=-1;spacingLeft=3;spacingRight=3;rotatable=0;labelPosition=right;points=[];portConstraint=eastwest;strokeColor=inherit;" vertex="1" parent="54"><mxGeometry y="130" width="220" height="8" as="geometry"/></mxCell><mxCell id="63" value="Auth" style="swimlane;fontStyle=1;align=center;verticalAlign=top;childLayout=stackLayout;horizontal=1;startSize=26;horizontalStack=0;resizeParent=1;resizeParentMax=0;resizeLast=0;collapsible=1;marginBottom=0;" vertex="1" parent="1"><mxGeometry x="310" y="838" width="160" height="112" as="geometry"/></mxCell><mxCell id="64" value="- status: AuthStatus" style="text;strokeColor=none;fillColor=none;align=left;verticalAlign=top;spacingLeft=4;spacingRight=4;overflow=hidden;rotatable=0;points=[[0,0.5],[1,0.5]];portConstraint=eastwest;" vertex="1" parent="63"><mxGeometry y="26" width="160" height="26" as="geometry"/></mxCell><mxCell id="65" value="" style="line;strokeWidth=1;fillColor=none;align=left;verticalAlign=middle;spacingTop=-1;spacingLeft=3;spacingRight=3;rotatable=0;labelPosition=right;points=[];portConstraint=eastwest;strokeColor=inherit;" vertex="1" parent="63"><mxGeometry y="52" width="160" height="8" as="geometry"/></mxCell><mxCell id="66" value="+ getSession(): String" style="text;strokeColor=none;fillColor=none;align=left;verticalAlign=top;spacingLeft=4;spacingRight=4;overflow=hidden;rotatable=0;points=[[0,0.5],[1,0.5]];portConstraint=eastwest;" vertex="1" parent="63"><mxGeometry y="60" width="160" height="26" as="geometry"/></mxCell><mxCell id="67" value="+ setSession(): String" style="text;strokeColor=none;fillColor=none;align=left;verticalAlign=top;spacingLeft=4;spacingRight=4;overflow=hidden;rotatable=0;points=[[0,0.5],[1,0.5]];portConstraint=eastwest;" vertex="1" parent="63"><mxGeometry y="86" width="160" height="26" as="geometry"/></mxCell><mxCell id="71" value="Account" style="swimlane;fontStyle=1;align=center;verticalAlign=top;childLayout=stackLayout;horizontal=1;startSize=26;horizontalStack=0;resizeParent=1;resizeParentMax=0;resizeLast=0;collapsible=1;marginBottom=0;" vertex="1" parent="1"><mxGeometry x="-290" y="580" width="190" height="86" as="geometry"/></mxCell><mxCell id="72" value="- accountType: AccountType" style="text;strokeColor=none;fillColor=none;align=left;verticalAlign=top;spacingLeft=4;spacingRight=4;overflow=hidden;rotatable=0;points=[[0,0.5],[1,0.5]];portConstraint=eastwest;" vertex="1" parent="71"><mxGeometry y="26" width="190" height="26" as="geometry"/></mxCell><mxCell id="73" value="" style="line;strokeWidth=1;fillColor=none;align=left;verticalAlign=middle;spacingTop=-1;spacingLeft=3;spacingRight=3;rotatable=0;labelPosition=right;points=[];portConstraint=eastwest;strokeColor=inherit;" vertex="1" parent="71"><mxGeometry y="52" width="190" height="8" as="geometry"/></mxCell><mxCell id="74" value="+ method(type): type" style="text;strokeColor=none;fillColor=none;align=left;verticalAlign=top;spacingLeft=4;spacingRight=4;overflow=hidden;rotatable=0;points=[[0,0.5],[1,0.5]];portConstraint=eastwest;" vertex="1" parent="71"><mxGeometry y="60" width="190" height="26" as="geometry"/></mxCell><mxCell id="75" value="&lt;p style=&quot;margin:0px;margin-top:4px;text-align:center;&quot;&gt;&amp;lt;&amp;lt;enumeration&amp;gt;&amp;gt;&lt;br&gt;&lt;b&gt;AccountType&lt;/b&gt;&lt;/p&gt;&lt;hr&gt;&lt;p style=&quot;margin:0px;margin-left:8px;text-align:left;&quot;&gt;Current&lt;br&gt;Savings&lt;/p&gt;" style="shape=rect;html=1;overflow=fill;whiteSpace=wrap;" vertex="1" parent="1"><mxGeometry x="-430" y="240" width="200" height="80" as="geometry"/></mxCell><mxCell id="76" value="" style="endArrow=diamondThin;endFill=1;endSize=24;html=1;rounded=0;exitX=0.5;exitY=1;exitDx=0;exitDy=0;entryX=0.5;entryY=0;entryDx=0;entryDy=0;edgeStyle=orthogonalEdgeStyle;" edge="1" parent="1" source="75" target="71"><mxGeometry width="160" relative="1" as="geometry"><mxPoint x="-650" y="450" as="sourcePoint"/><mxPoint x="-525" y="410" as="targetPoint"/></mxGeometry></mxCell><mxCell id="82" value="" style="endArrow=block;dashed=1;endFill=0;endSize=12;html=1;rounded=0;entryX=0.522;entryY=0.985;entryDx=0;entryDy=0;entryPerimeter=0;" edge="1" parent="1" target="21"><mxGeometry width="160" relative="1" as="geometry"><mxPoint x="1004" y="370" as="sourcePoint"/><mxPoint x="840" y="390" as="targetPoint"/></mxGeometry></mxCell><mxCell id="83" value="" style="endArrow=none;dashed=1;html=1;dashPattern=1 3;strokeWidth=2;rounded=0;exitX=0.5;exitY=0;exitDx=0;exitDy=0;edgeStyle=orthogonalEdgeStyle;" edge="1" parent="1" source="10"><mxGeometry width="50" height="50" relative="1" as="geometry"><mxPoint x="690" y="440" as="sourcePoint"/><mxPoint x="1000" y="370" as="targetPoint"/></mxGeometry></mxCell><mxCell id="84" value="" style="endArrow=none;dashed=1;html=1;dashPattern=1 3;strokeWidth=2;rounded=0;exitX=0.5;exitY=0;exitDx=0;exitDy=0;edgeStyle=orthogonalEdgeStyle;" edge="1" parent="1" source="6"><mxGeometry width="50" height="50" relative="1" as="geometry"><mxPoint x="700" y="480" as="sourcePoint"/><mxPoint x="1010" y="370" as="targetPoint"/></mxGeometry></mxCell><mxCell id="85" value="" style="endArrow=none;dashed=1;html=1;dashPattern=1 3;strokeWidth=2;rounded=0;exitX=0.5;exitY=0;exitDx=0;exitDy=0;edgeStyle=orthogonalEdgeStyle;elbow=vertical;" edge="1" parent="1" source="14"><mxGeometry width="50" height="50" relative="1" as="geometry"><mxPoint x="1480" y="470" as="sourcePoint"/><mxPoint x="1000" y="370" as="targetPoint"/></mxGeometry></mxCell><mxCell id="93" value="" style="endArrow=diamondThin;endFill=1;endSize=24;html=1;rounded=0;elbow=vertical;exitX=1;exitY=0.25;exitDx=0;exitDy=0;edgeStyle=orthogonalEdgeStyle;entryX=0;entryY=0.5;entryDx=0;entryDy=0;" edge="1" parent="1" source="32" target="11"><mxGeometry width="160" relative="1" as="geometry"><mxPoint x="250" y="510" as="sourcePoint"/><mxPoint x="600" y="380" as="targetPoint"/></mxGeometry></mxCell><mxCell id="95" value="" style="edgeStyle=orthogonalEdgeStyle;html=1;endArrow=none;elbow=vertical;rounded=0;entryX=0.25;entryY=0;entryDx=0;entryDy=0;exitX=0.5;exitY=0;exitDx=0;exitDy=0;" edge="1" parent="1" source="54" target="50"><mxGeometry width="160" relative="1" as="geometry"><mxPoint x="-80" y="670" as="sourcePoint"/><mxPoint x="80" y="670" as="targetPoint"/></mxGeometry></mxCell><mxCell id="96" value="" style="edgeStyle=orthogonalEdgeStyle;html=1;endArrow=none;elbow=vertical;rounded=0;entryX=0.5;entryY=0;entryDx=0;entryDy=0;exitX=0.75;exitY=0;exitDx=0;exitDy=0;" edge="1" parent="1" source="50" target="63"><mxGeometry width="160" relative="1" as="geometry"><mxPoint x="80" y="470" as="sourcePoint"/><mxPoint x="240" y="470" as="targetPoint"/></mxGeometry></mxCell><mxCell id="101" value="" style="endArrow=open;startArrow=none;endFill=0;startFill=0;endSize=8;html=1;verticalAlign=bottom;labelBackgroundColor=none;strokeWidth=1;rounded=0;elbow=vertical;entryX=1;entryY=0.5;entryDx=0;entryDy=0;edgeStyle=orthogonalEdgeStyle;exitX=0;exitY=0.5;exitDx=0;exitDy=0;" edge="1" parent="1" source="110" target="77"><mxGeometry width="160" relative="1" as="geometry"><mxPoint x="490" y="800" as="sourcePoint"/><mxPoint x="270" y="580" as="targetPoint"/><Array as="points"><mxPoint x="570" y="890"/><mxPoint x="530" y="890"/><mxPoint x="530" y="1023"/></Array></mxGeometry></mxCell><mxCell id="104" value="" style="endArrow=diamondThin;endFill=0;endSize=24;html=1;rounded=0;elbow=vertical;entryX=0.5;entryY=0;entryDx=0;entryDy=0;exitX=0.75;exitY=0;exitDx=0;exitDy=0;edgeStyle=orthogonalEdgeStyle;" edge="1" parent="1" source="71" target="32"><mxGeometry width="160" relative="1" as="geometry"><mxPoint x="60" y="50" as="sourcePoint"/><mxPoint x="220" y="50" as="targetPoint"/><Array as="points"><mxPoint x="-167" y="130"/><mxPoint x="210" y="130"/></Array></mxGeometry></mxCell><mxCell id="105" value="" style="endArrow=diamondThin;endFill=1;endSize=24;html=1;rounded=0;elbow=vertical;entryX=0;entryY=0.5;entryDx=0;entryDy=0;edgeStyle=orthogonalEdgeStyle;" edge="1" parent="1" target="116"><mxGeometry width="160" relative="1" as="geometry"><mxPoint x="-120" y="580" as="sourcePoint"/><mxPoint x="550" y="210" as="targetPoint"/><Array as="points"><mxPoint x="-120" y="580"/><mxPoint x="-120" y="465"/></Array></mxGeometry></mxCell><mxCell id="107" value="" style="endArrow=open;startArrow=none;endFill=0;startFill=0;endSize=8;html=1;verticalAlign=bottom;labelBackgroundColor=none;strokeWidth=1;rounded=0;elbow=vertical;entryX=0.5;entryY=0;entryDx=0;entryDy=0;exitX=1;exitY=0.5;exitDx=0;exitDy=0;edgeStyle=orthogonalEdgeStyle;" edge="1" parent="1" source="5" target="43"><mxGeometry width="160" relative="1" as="geometry"><mxPoint x="-560" y="300" as="sourcePoint"/><mxPoint x="-400" y="300" as="targetPoint"/></mxGeometry></mxCell><mxCell id="108" value="" style="endArrow=open;startArrow=none;endFill=0;startFill=0;endSize=8;html=1;verticalAlign=bottom;labelBackgroundColor=none;strokeWidth=1;rounded=0;elbow=vertical;exitX=1;exitY=0.5;exitDx=0;exitDy=0;entryX=0.75;entryY=0;entryDx=0;entryDy=0;edgeStyle=orthogonalEdgeStyle;" edge="1" parent="1" source="13" target="2"><mxGeometry width="160" relative="1" as="geometry"><mxPoint x="500" y="650" as="sourcePoint"/><mxPoint x="660" y="650" as="targetPoint"/></mxGeometry></mxCell><mxCell id="117" value="authenticateCustomer" style="edgeLabel;html=1;align=center;verticalAlign=middle;resizable=0;points=[];" vertex="1" connectable="0" parent="108"><mxGeometry x="-0.3398" y="3" relative="1" as="geometry"><mxPoint x="-29" y="3" as="offset"/></mxGeometry></mxCell><mxCell id="113" value="" style="endArrow=diamondThin;endFill=1;endSize=24;html=1;rounded=0;elbow=vertical;entryX=0;entryY=0.5;entryDx=0;entryDy=0;exitX=0.75;exitY=0;exitDx=0;exitDy=0;edgeStyle=orthogonalEdgeStyle;" edge="1" parent="1" source="63" target="112"><mxGeometry width="160" relative="1" as="geometry"><mxPoint x="350" y="820" as="sourcePoint"/><mxPoint x="510" y="820" as="targetPoint"/></mxGeometry></mxCell><mxCell id="120" value="" style="endArrow=open;startArrow=none;endFill=0;startFill=0;endSize=8;html=1;verticalAlign=bottom;labelBackgroundColor=none;strokeWidth=1;rounded=0;elbow=vertical;entryX=0.5;entryY=0;entryDx=0;entryDy=0;exitX=1;exitY=0.5;exitDx=0;exitDy=0;edgeStyle=orthogonalEdgeStyle;" edge="1" parent="1" source="86" target="2"><mxGeometry width="160" relative="1" as="geometry"><mxPoint x="570" y="630" as="sourcePoint"/><mxPoint x="730" y="630" as="targetPoint"/></mxGeometry></mxCell><mxCell id="121" value="performTransaction" style="edgeLabel;html=1;align=center;verticalAlign=middle;resizable=0;points=[];" vertex="1" connectable="0" parent="120"><mxGeometry x="0.1373" y="-1" relative="1" as="geometry"><mxPoint as="offset"/></mxGeometry></mxCell><mxCell id="124" value="" style="endArrow=diamondThin;endFill=1;endSize=24;html=1;rounded=0;elbow=vertical;entryX=0.428;entryY=1.099;entryDx=0;entryDy=0;entryPerimeter=0;exitX=0.5;exitY=0;exitDx=0;exitDy=0;edgeStyle=orthogonalEdgeStyle;" edge="1" parent="1" source="28" target="110"><mxGeometry width="160" relative="1" as="geometry"><mxPoint x="560" y="920" as="sourcePoint"/><mxPoint x="720" y="920" as="targetPoint"/><Array as="points"><mxPoint x="703" y="1080"/></Array></mxGeometry></mxCell></root></mxGraphModel></diagram></mxfile>